<mxfile host="app.diagrams.net" modified="2023-07-20T15:48:45.382Z" agent="Mozilla/5.0 (Windows NT 10.0; Win64; x64) AppleWebKit/537.36 (KHTML, like Gecko) Chrome/114.0.0.0 Safari/537.36" etag="zcPyt7JLJ0ZPtUGtkZmY" version="21.6.3" type="github">
  <diagram name="Page-1" id="YArdnzxBaSLkT3FSqktL">
    <mxGraphModel dx="1290" dy="541" grid="1" gridSize="10" guides="1" tooltips="1" connect="1" arrows="1" fold="1" page="1" pageScale="1" pageWidth="850" pageHeight="1100" math="0" shadow="0">
      <root>
        <mxCell id="0" />
        <mxCell id="1" parent="0" />
        <mxCell id="iGUqoBzPyPCPFgw1DMBw-16" style="edgeStyle=orthogonalEdgeStyle;rounded=0;orthogonalLoop=1;jettySize=auto;html=1;entryX=0.5;entryY=0;entryDx=0;entryDy=0;" edge="1" parent="1" source="iGUqoBzPyPCPFgw1DMBw-1" target="iGUqoBzPyPCPFgw1DMBw-5">
          <mxGeometry relative="1" as="geometry" />
        </mxCell>
        <mxCell id="iGUqoBzPyPCPFgw1DMBw-1" value="start" style="rounded=0;whiteSpace=wrap;html=1;" vertex="1" parent="1">
          <mxGeometry x="180" y="100" width="120" height="60" as="geometry" />
        </mxCell>
        <mxCell id="iGUqoBzPyPCPFgw1DMBw-2" value="End" style="rounded=0;whiteSpace=wrap;html=1;" vertex="1" parent="1">
          <mxGeometry x="180" y="680" width="120" height="60" as="geometry" />
        </mxCell>
        <mxCell id="iGUqoBzPyPCPFgw1DMBw-9" style="edgeStyle=orthogonalEdgeStyle;rounded=0;orthogonalLoop=1;jettySize=auto;html=1;" edge="1" parent="1" source="iGUqoBzPyPCPFgw1DMBw-5" target="iGUqoBzPyPCPFgw1DMBw-6">
          <mxGeometry relative="1" as="geometry" />
        </mxCell>
        <mxCell id="iGUqoBzPyPCPFgw1DMBw-5" value="A=1.75" style="rounded=1;whiteSpace=wrap;html=1;" vertex="1" parent="1">
          <mxGeometry x="180" y="230" width="120" height="60" as="geometry" />
        </mxCell>
        <mxCell id="iGUqoBzPyPCPFgw1DMBw-10" style="edgeStyle=orthogonalEdgeStyle;rounded=0;orthogonalLoop=1;jettySize=auto;html=1;" edge="1" parent="1" source="iGUqoBzPyPCPFgw1DMBw-6">
          <mxGeometry relative="1" as="geometry">
            <mxPoint x="240" y="440" as="targetPoint" />
          </mxGeometry>
        </mxCell>
        <mxCell id="iGUqoBzPyPCPFgw1DMBw-6" value="B=2.18" style="rounded=1;whiteSpace=wrap;html=1;" vertex="1" parent="1">
          <mxGeometry x="180" y="330" width="120" height="60" as="geometry" />
        </mxCell>
        <mxCell id="iGUqoBzPyPCPFgw1DMBw-12" style="edgeStyle=orthogonalEdgeStyle;rounded=0;orthogonalLoop=1;jettySize=auto;html=1;" edge="1" parent="1" source="iGUqoBzPyPCPFgw1DMBw-8" target="iGUqoBzPyPCPFgw1DMBw-11">
          <mxGeometry relative="1" as="geometry" />
        </mxCell>
        <mxCell id="iGUqoBzPyPCPFgw1DMBw-8" value="SUM=AxB" style="rounded=1;whiteSpace=wrap;html=1;" vertex="1" parent="1">
          <mxGeometry x="180" y="440" width="120" height="60" as="geometry" />
        </mxCell>
        <mxCell id="iGUqoBzPyPCPFgw1DMBw-13" style="edgeStyle=orthogonalEdgeStyle;rounded=0;orthogonalLoop=1;jettySize=auto;html=1;entryX=0.5;entryY=0;entryDx=0;entryDy=0;" edge="1" parent="1" source="iGUqoBzPyPCPFgw1DMBw-11" target="iGUqoBzPyPCPFgw1DMBw-2">
          <mxGeometry relative="1" as="geometry" />
        </mxCell>
        <mxCell id="iGUqoBzPyPCPFgw1DMBw-11" value="SUM" style="shape=document;whiteSpace=wrap;html=1;boundedLbl=1;" vertex="1" parent="1">
          <mxGeometry x="180" y="550" width="120" height="80" as="geometry" />
        </mxCell>
        <mxCell id="iGUqoBzPyPCPFgw1DMBw-17" value="A&lt;br&gt;1.75" style="rounded=0;whiteSpace=wrap;html=1;" vertex="1" parent="1">
          <mxGeometry x="460" y="270" width="120" height="60" as="geometry" />
        </mxCell>
        <mxCell id="iGUqoBzPyPCPFgw1DMBw-19" value="B&lt;br&gt;2.18" style="rounded=0;whiteSpace=wrap;html=1;" vertex="1" parent="1">
          <mxGeometry x="580" y="270" width="120" height="60" as="geometry" />
        </mxCell>
        <mxCell id="iGUqoBzPyPCPFgw1DMBw-20" value="SUM&lt;br&gt;AXB" style="rounded=0;whiteSpace=wrap;html=1;" vertex="1" parent="1">
          <mxGeometry x="460" y="330" width="120" height="60" as="geometry" />
        </mxCell>
      </root>
    </mxGraphModel>
  </diagram>
</mxfile>
